<?xml version="1.0" encoding="utf-8"?>
<!-- Generator: Adobe Illustrator 25.3.1, SVG Export Plug-In . SVG Version: 6.00 Build 0)  -->
<svg version="1.1" id="Layer_1" xmlns="http://www.w3.org/2000/svg" xmlns:xlink="http://www.w3.org/1999/xlink" x="0px" y="0px"
	 viewBox="0 0 250 156.47" style="enable-background:new 0 0 250 156.47;" xml:space="preserve">
<style type="text/css">
	.st0{fill:#3195FF;}
</style>
<g>
	<polygon class="st0" points="151.97,130.92 151.97,152.75 157.58,147.14 161.66,155 164.63,153.47 160.7,145.89 168.29,145.89 	"/>
	<path class="st0" d="M168.67,135.61c0.04-0.21,0.07-0.42,0.1-0.63c0.02-0.11,0.03-0.23,0.05-0.34c0.03-0.2,0.05-0.4,0.07-0.6
		c0.02-0.16,0.03-0.31,0.04-0.47c0.01-0.16,0.03-0.32,0.03-0.49c0.02-0.33,0.03-0.66,0.03-0.99c0-0.33-0.01-0.65-0.02-0.97
		c-0.01-0.2-0.03-0.4-0.04-0.61c-0.01-0.11-0.01-0.21-0.02-0.32c-0.02-0.26-0.05-0.52-0.09-0.77c-0.01-0.04-0.01-0.08-0.02-0.12
		c-0.04-0.27-0.08-0.54-0.13-0.81c0-0.02-0.01-0.04-0.01-0.05c0,0,0,0,0,0c-1.61-8.98-9.08-15.93-18.31-16.76c-0.01,0-0.03,0-0.04,0
		c-0.28-0.03-0.57-0.05-0.85-0.06c-0.32-0.02-0.64-0.02-0.96-0.02c-0.32,0-0.64,0.01-0.96,0.02c-0.29,0.01-0.57,0.04-0.85,0.06
		c-0.01,0-0.03,0-0.04,0c-9.23,0.83-16.69,7.78-18.31,16.76c0,0,0,0,0,0c0,0.02-0.01,0.04-0.01,0.05c-0.05,0.27-0.09,0.53-0.13,0.8
		c-0.01,0.04-0.01,0.08-0.02,0.12c-0.03,0.26-0.06,0.51-0.09,0.77c-0.01,0.11-0.02,0.21-0.02,0.32c-0.02,0.2-0.03,0.4-0.04,0.61
		c-0.02,0.32-0.02,0.65-0.02,0.97c0,0.32,0.01,0.65,0.02,0.97c0.01,0.21,0.03,0.42,0.04,0.63c0.01,0.1,0.01,0.19,0.02,0.29
		c0.02,0.27,0.06,0.53,0.09,0.8c0,0.03,0.01,0.06,0.01,0.09c0.04,0.29,0.08,0.57,0.13,0.85c0,0,0,0.01,0,0.01h0
		c1.51,8.39,8.12,15,16.51,16.51c0,0,0,0,0,0c0.06,0.01,0.13,0.02,0.19,0.03c0.19,0.03,0.38,0.06,0.57,0.09
		c0.13,0.02,0.27,0.03,0.4,0.05c0.18,0.02,0.36,0.04,0.54,0.06c0.18,0.02,0.35,0.03,0.53,0.04c0.14,0.01,0.28,0.02,0.43,0.03
		c0.33,0.02,0.65,0.03,0.98,0.03c0.02,0,0.04,0,0.06,0v-0.19v-4.58c-0.02,0-0.04,0.01-0.06,0.01c-0.92,0-1.81-0.08-2.69-0.24
		c-0.67-2.06-1.29-4.77-1.68-8.12c1.41,0.09,2.87,0.14,4.36,0.14c0.02,0,0.04,0,0.06,0v-2.73c-0.02,0-0.04,0-0.06,0
		c-1.64,0-3.17-0.06-4.61-0.15c-0.1-1.44-0.15-2.97-0.15-4.61c0-1.64,0.05-3.18,0.15-4.62c1.44-0.1,2.98-0.15,4.61-0.15
		c1.63,0,3.17,0.06,4.6,0.15c0.01,0.08,0.01,0.16,0.02,0.25c0.42,0.15,0.81,0.38,1.15,0.69l1.68,1.54
		c-0.02-0.75-0.06-1.49-0.11-2.23c3.36,0.39,6.07,1.01,8.13,1.68c0.15,0.87,0.23,1.77,0.23,2.69c0,0.92-0.09,1.81-0.24,2.68
		c-0.64,0.21-1.34,0.41-2.11,0.61l1.6,1.48c0,0,0,0,0,0l3.79,3.47c0.64-1.45,1.11-2.99,1.39-4.6c0,0,0,0,0,0
		C168.66,135.69,168.67,135.65,168.67,135.61z M142.7,117.49c-0.58,2.19-1.04,4.72-1.33,7.48c-2.76,0.29-5.29,0.74-7.48,1.33
		C135.5,122.29,138.7,119.09,142.7,117.49z M142.7,146.69c-4.01-1.6-7.21-4.8-8.81-8.81c2.19,0.58,4.72,1.04,7.48,1.33
		C141.67,141.97,142.12,144.5,142.7,146.69z M141.14,136.45c-3.35-0.38-6.06-1-8.12-1.68c-0.15-0.87-0.23-1.77-0.23-2.68
		c0-0.92,0.08-1.81,0.23-2.69c2.06-0.67,4.77-1.29,8.12-1.68c-0.09,1.41-0.14,2.87-0.14,4.37
		C141.01,133.59,141.06,135.04,141.14,136.45z M148.5,124.6c-1.49,0-2.95,0.05-4.36,0.14c0.38-3.35,1-6.06,1.68-8.12
		c0.87-0.15,1.77-0.24,2.69-0.24c0.91,0,1.81,0.08,2.68,0.23c0.67,2.06,1.29,4.77,1.68,8.13C151.44,124.65,149.99,124.6,148.5,124.6
		z M155.61,124.97c-0.29-2.76-0.74-5.29-1.33-7.48c4.01,1.6,7.21,4.8,8.81,8.81C160.9,125.71,158.37,125.26,155.61,124.97z"/>
</g>
<path class="st0" d="M36.9,103.03c-9.07,0-16.42-3.02-21.83-8.99c-4.79-5.24-7.21-11.68-7.21-19.16c0-6.3,1.73-11.61,5.15-15.77
	c3.92-4.77,9.18-7.19,15.65-7.19c8.1,0,15.28,3.59,21.35,10.67c5.66,6.55,8.53,13.72,8.53,21.31
	C58.53,91.05,55.72,103.03,36.9,103.03z M28.65,62.53c-3.14,0-5.34,1.2-6.9,3.76c-1.37,2.22-2.06,4.91-2.06,8
	c0,4.81,1.41,8.86,4.31,12.37c3.18,3.94,7.4,5.84,12.91,5.84c7.01,0,9.87-2.47,9.87-8.53c0-4.76-1.92-9.55-5.7-14.25
	C37.15,64.88,33.08,62.53,28.65,62.53z"/>
<path class="st0" d="M36.9,102.03c-8.78,0-15.87-2.91-21.09-8.66C11.2,88.32,8.86,82.1,8.86,74.89c0-6.06,1.66-11.16,4.92-15.13
	c3.72-4.53,8.72-6.83,14.87-6.83c7.79,0,14.72,3.47,20.59,10.32c5.5,6.36,8.29,13.31,8.29,20.66
	C57.53,92.17,53.95,102.03,36.9,102.03z M28.65,61.53c-3.48,0-6.02,1.39-7.76,4.24c-1.47,2.38-2.21,5.25-2.21,8.52
	c0,5.06,1.48,9.31,4.54,13c3.38,4.18,7.85,6.21,13.68,6.21c7.52,0,10.87-2.94,10.87-9.53c0-4.99-1.99-10-5.92-14.88
	C37.72,64,33.4,61.53,28.65,61.53z"/>
<path class="st0" d="M38.9,101.03c-8.48,0-15.33-2.8-20.35-8.33c-4.44-4.86-6.7-10.85-6.7-17.81c0-5.83,1.58-10.71,4.69-14.5
	c3.52-4.29,8.26-6.46,14.1-6.46c7.49,0,14.16,3.35,19.83,9.97c5.34,6.18,8.04,12.91,8.04,20.01
	C58.53,95.27,51.92,101.03,38.9,101.03z M30.65,60.53c-3.86,0-6.67,1.54-8.61,4.72c-1.56,2.54-2.36,5.58-2.36,9.04
	c0,5.22,1.6,9.81,4.77,13.64c3.53,4.36,8.39,6.57,14.45,6.57c7.99,0,11.87-3.45,11.87-10.53c0-5.23-2.06-10.44-6.14-15.5
	C40.36,63.2,35.65,60.53,30.65,60.53z"/>
<path class="st0" d="M49.72,64.55c-5.5-6.41-11.86-9.62-19.07-9.62c-5.56,0-10,2.04-13.33,6.1c-2.98,3.63-4.47,8.24-4.47,13.86
	c0,6.73,2.14,12.44,6.44,17.14c4.84,5.34,11.37,8,19.61,8c12.42,0,18.63-5.38,18.63-16.13C57.53,77.01,54.92,70.56,49.72,64.55z
	 M38.9,95.5c-6.41,0-11.49-2.32-15.22-6.93c-3.33-4.03-5-8.78-5-14.28c0-3.67,0.83-6.85,2.5-9.56c2.12-3.47,5.27-5.2,9.46-5.2
	c5.34,0,10.26,2.77,14.76,8.3c4.23,5.26,6.36,10.64,6.36,16.13C51.77,91.65,47.48,95.5,38.9,95.5z"/>
<path class="st0" d="M78.85,110.05c-4.12,0-8.39,0-14.85-1.02c-0.18-0.03-0.37-0.05-0.57-0.08c-1.48-0.2-3.38-0.46-5.9-1.46
	c-3.15-1.31-3.48-3.77-3.48-4.77c0-2.47,1.56-5.35,5.95-5.35c0.67,0,1.23,0.16,1.63,0.27c0.13,0.04,0.23,0.07,0.34,0.09l1.44,0.3
	c3.17,0.67,3.74,0.79,8.19,1.27c1.97,0.21,3.66,0.24,5.06,0.24l1.8-0.01c2.59,0,4.19-0.7,5.04-2.21c0.59-1,1.28-3.05,1.28-7.28
	c0-2.38-0.46-5-1.37-7.77c-0.16-0.47-0.79-2.22-3.26-8.19c-1.84-4.43-2.88-7.32-3.26-9.1l-0.22-0.94v-0.35c0-2.61,1.6-5.4,6.11-5.4
	c2.45,0,4.45,1.33,5.35,3.55l7.98,20.29c1.09,2.07,2.57,4.25,4.42,6.48c3.1,3.81,6,6.64,8.63,8.44c1.51,1.03,3.48,1.6,5.53,1.6
	c1.05,0,2.08-0.15,3.07-0.43c6.16-1.78,9.02-5.6,9.02-12.02c0-2.63-0.58-5.73-1.74-9.19c-1.01-3.17-2.34-6.3-3.96-9.32
	c-1.47-2.64-2.95-4.99-4.39-6.97l-0.26-0.36l-0.77-2.22v-0.5c0-2.46,1.58-5.34,6.03-5.34c1.71,0,3.26,0.71,4.49,2.05l0.14,0.15
	l0.12,0.17c0.17,0.25,0.43,0.6,0.77,1.07c4.03,5.56,7.27,11.21,9.67,16.87c2.52,6.04,3.8,11.52,3.8,16.3c0,3.13,1.17,5.55,3.59,7.4
	c0.72,0.55,1.52,1.03,2.36,1.43c1.27,0.6,2.73,0.91,4.22,0.91c2.67,0,5.02-0.96,6.29-2.58c1.67-2.11,2.52-5.12,2.52-8.96
	c0-3.36-0.65-7.32-1.93-11.77c-1.09-3.71-2.3-6.77-3.6-9.09l-0.22-0.39l-0.39-1.77v-0.33c0-2.53,1.6-5.22,6.11-5.22
	c1.22,0,2.23,0.25,3.08,0.76c0.89,0.51,1.6,1.31,2.12,2.38l0.88,1.74l2.25,4.91c0.95,2.12,1.83,5.05,2.7,8.94
	c0.8,3.33,1.21,6.63,1.21,9.77c0,15.56-8.83,20.66-16.25,22.19l-0.21,0.04c-1.18,0.24-2.41,0.36-3.65,0.36
	c-1.06,0-2.13-0.09-3.18-0.26c-0.2-0.03-0.42-0.07-0.63-0.11c-2.09-0.38-4.21-0.95-6.3-1.69c-3.5-1.23-6.34-2.82-8.44-4.74
	c-4.05,3.66-10.01,5.92-17.72,6.72c-0.12,0.01-0.32,0.03-0.57,0.03c-1.35,0-5.71-0.42-7.56-1.08c-2.07-0.72-4.2-1.75-6.33-3.08
	c-2.25-1.39-4.29-2.93-6.05-4.61C92.36,106.87,86.81,110.05,78.85,110.05z"/>
<path class="st0" d="M78.85,109.05c-4.09,0-8.31,0-14.7-1c-0.21-0.03-0.44-0.06-0.68-0.1c-1.34-0.18-3.16-0.43-5.57-1.38
	c-2.49-1.03-2.85-2.85-2.85-3.84c0-2.1,1.3-4.35,4.95-4.35c0.53,0,0.99,0.13,1.36,0.23c0.13,0.04,0.26,0.08,0.41,0.11l1.44,0.3
	c3.21,0.68,3.79,0.8,8.28,1.28c2.01,0.22,3.74,0.25,5.17,0.25l1.81-0.01c2.94,0,4.87-0.89,5.91-2.71c0.65-1.1,1.41-3.32,1.41-7.78
	c0-2.49-0.48-5.21-1.42-8.08c-0.2-0.59-0.9-2.48-3.29-8.26c-1.82-4.37-2.84-7.21-3.2-8.92l-0.2-0.85v-0.23c0-1.03,0.37-4.4,5.11-4.4
	c2.05,0,3.67,1.07,4.42,2.92l8,20.33c1.12,2.15,2.66,4.4,4.56,6.7c3.15,3.88,6.12,6.78,8.84,8.63c1.68,1.14,3.84,1.77,6.09,1.77
	c1.14,0,2.27-0.16,3.35-0.47c6.56-1.89,9.74-6.14,9.74-12.98c0-2.74-0.6-5.94-1.79-9.51c-1.03-3.22-2.38-6.4-4.03-9.47
	c-1.49-2.68-3-5.07-4.47-7.09l-0.18-0.24l-0.66-1.92v-0.33c0-2.1,1.32-4.34,5.03-4.34c1.42,0,2.72,0.6,3.75,1.73l0.09,0.1l0.08,0.11
	c0.18,0.27,0.46,0.65,0.83,1.16c3.96,5.45,7.14,11.01,9.51,16.6c2.47,5.91,3.72,11.26,3.72,15.91c0,3.46,1.3,6.14,3.98,8.19
	c0.78,0.6,1.63,1.11,2.55,1.54c1.4,0.66,3.01,1,4.65,1c2.97,0,5.62-1.11,7.08-2.96c1.83-2.31,2.73-5.5,2.73-9.58
	c0-3.46-0.66-7.51-1.97-12.05c-1.11-3.78-2.35-6.91-3.69-9.3l-0.14-0.26l-0.33-1.52v-0.22c0-0.99,0.37-4.22,5.11-4.22
	c1.04,0,1.88,0.2,2.57,0.62c0.71,0.41,1.3,1.07,1.73,1.96l0.89,1.76l2.23,4.87c0.92,2.06,1.78,4.91,2.63,8.75
	c0.78,3.26,1.18,6.49,1.18,9.55c0,14.89-8.4,19.75-15.45,21.21l-0.21,0.04c-1.12,0.23-2.28,0.34-3.45,0.34c-1,0-2.02-0.08-3.02-0.25
	c-0.2-0.03-0.4-0.07-0.61-0.11c-2.04-0.37-4.11-0.92-6.14-1.65c-3.78-1.33-6.72-3.07-8.77-5.18c-3.89,3.9-9.87,6.29-17.83,7.11
	c-0.1,0.01-0.26,0.02-0.46,0.02c-1.26,0-5.5-0.41-7.23-1.02c-2-0.69-4.07-1.7-6.14-2.98c-2.68-1.65-5.01-3.5-6.96-5.55
	C92.41,105.61,87.04,109.05,78.85,109.05z"/>
<path class="st0" d="M78.85,108.05c-4.05,0-8.23,0-14.54-0.99c-0.22-0.04-0.45-0.07-0.71-0.1c-1.28-0.17-3.04-0.41-5.33-1.32
	c-1.84-0.76-2.22-2-2.22-2.91c0-1.01,0.38-3.35,3.95-3.35c0.39,0,0.74,0.1,1.08,0.2c0.15,0.04,0.31,0.09,0.48,0.12L63,100
	c3.18,0.67,3.84,0.81,8.38,1.3c2.06,0.22,3.82,0.25,5.28,0.25l1.81-0.01c3.33,0,5.55-1.05,6.78-3.22c1.02-1.74,1.54-4.51,1.54-8.27
	c0-2.59-0.49-5.42-1.46-8.39c-0.25-0.75-1.03-2.81-3.31-8.33c-1.77-4.26-2.8-7.12-3.15-8.75l-0.18-0.76v-0.12
	c0-1.02,0.4-3.4,4.11-3.4c1.65,0,2.89,0.82,3.5,2.3l8.01,20.37c1.16,2.22,2.74,4.55,4.7,6.92c3.21,3.95,6.25,6.91,9.05,8.82
	c1.84,1.26,4.21,1.95,6.66,1.95c1.23,0,2.45-0.17,3.63-0.51c7.04-2.03,10.47-6.59,10.47-13.94c0-2.85-0.62-6.16-1.84-9.83
	c-1.04-3.27-2.42-6.51-4.1-9.63c-1.52-2.73-3.05-5.16-4.54-7.2l-0.09-0.12l-0.56-1.62v-0.17c0-1,0.39-3.34,4.03-3.34
	c1.15,0,2.16,0.47,3.01,1.4l0.05,0.05l0.04,0.06c0.19,0.27,0.47,0.66,0.84,1.18c3.91,5.39,7.06,10.89,9.4,16.41
	c2.42,5.78,3.64,11,3.64,15.52c0,3.8,1.43,6.74,4.37,8.99c0.83,0.64,1.75,1.19,2.73,1.65c1.54,0.72,3.29,1.1,5.07,1.1
	c3.27,0,6.21-1.25,7.86-3.34c1.98-2.49,2.95-5.89,2.95-10.19c0-3.55-0.68-7.7-2.01-12.33c-1.13-3.85-2.4-7.06-3.78-9.51l-0.07-0.13
	l-0.28-1.27v-0.11c0-0.97,0.4-3.22,4.11-3.22c0.85,0,1.52,0.16,2.06,0.48c0.55,0.31,1,0.83,1.34,1.53l0.9,1.78l2.21,4.84
	c0.89,1.99,1.73,4.78,2.56,8.55c0.77,3.2,1.16,6.35,1.16,9.34c0,11.42-4.93,18.22-14.65,20.23l-0.2,0.04
	c-1.05,0.21-2.14,0.32-3.25,0.32c-0.95,0-1.91-0.08-2.85-0.24c-0.2-0.03-0.39-0.07-0.59-0.1c-1.99-0.36-4-0.9-5.99-1.61
	c-4.1-1.44-7.15-3.36-9.09-5.72c-3.68,4.19-9.71,6.74-17.95,7.6c-0.08,0.01-0.21,0.01-0.36,0.01c-1.25,0-5.33-0.41-6.89-0.96
	c-1.94-0.67-3.94-1.64-5.95-2.89c-3.18-1.95-5.85-4.21-7.96-6.72C92.47,104.34,87.34,108.05,78.85,108.05z"/>
<path class="st0" d="M168.87,87.06c0,10.93-4.62,17.34-13.85,19.25c-0.07,0.01-0.14,0.03-0.2,0.04c-1.88,0.38-3.84,0.39-5.74,0.08
	c-0.19-0.03-0.38-0.06-0.57-0.1c-1.96-0.35-3.91-0.88-5.83-1.57c-4.54-1.6-7.67-3.74-9.39-6.42c-3.41,4.6-9.44,7.35-18.09,8.25
	c-0.74,0.08-5.28-0.35-6.81-0.89c-1.89-0.65-3.81-1.59-5.76-2.8c-3.84-2.36-6.87-5.12-9.09-8.28c-1.01,8.28-5.9,12.43-14.69,12.43
	c-4.24,0-8.3-0.02-14.39-0.98c-1.32-0.21-3.2-0.32-5.82-1.36c-1.07-0.44-1.59-1.1-1.59-1.98c0-1.56,0.98-2.35,2.95-2.35
	c0.4,0,0.83,0.19,1.36,0.3c4.56,0.95,4.71,1.06,9.92,1.61c2.96,0.32,5.27,0.25,7.19,0.25c3.68,0,6.24-1.24,7.65-3.72
	c1.11-1.88,1.67-4.8,1.67-8.76c0-2.72-0.51-5.62-1.51-8.7c-0.36-1.08-1.47-3.88-3.34-8.4c-1.71-4.12-2.75-6.98-3.1-8.58l-0.15-0.66
	c0-1.6,1.03-2.4,3.11-2.4c1.26,0,2.12,0.56,2.57,1.68l8.03,20.41c1.2,2.33,2.82,4.71,4.84,7.15c3.28,4.04,6.37,7.04,9.25,9.01
	c3.08,2.1,7.31,2.68,11.13,1.57c7.46-2.16,11.19-7.13,11.19-14.9c0-2.96-0.63-6.34-1.89-10.14c-1.06-3.32-2.44-6.58-4.16-9.79
	c-1.56-2.8-3.1-5.24-4.61-7.32l-0.46-1.32c0-1.56,1.01-2.34,3.03-2.34c0.86,0,1.62,0.36,2.27,1.08c0.2,0.29,0.5,0.7,0.9,1.26
	c3.84,5.29,6.92,10.67,9.24,16.14c2.37,5.68,3.56,10.73,3.56,15.13c0,4.08,1.58,7.35,4.77,9.78c0.89,0.68,1.86,1.27,2.91,1.77
	c4.83,2.26,11.17,1.24,14.14-2.53c0.02-0.02,0.04-0.05,0.06-0.07c2.06-2.6,3.11-6.18,3.11-10.74c0-3.68-0.69-7.88-2.05-12.6
	c-1.16-3.96-2.45-7.2-3.86-9.73l-0.22-1.02c0-1.48,1.03-2.22,3.11-2.22c0.65,0,1.17,0.11,1.55,0.33c0.38,0.22,0.7,0.59,0.95,1.1
	l0.91,1.8l2.19,4.8c0.86,1.92,1.69,4.71,2.5,8.35C168.49,81.09,168.87,84.14,168.87,87.06z"/>
<path class="st0" d="M101.96,54.31c-3.57,0-5.88-2.34-5.88-5.95c0-3.66,2.31-6.03,5.88-6.03c11.68,0,20.21-5.79,26.08-17.71
	c2.24-4.63,3.91-9.9,4.96-15.65c0.55-3.15,2.79-5.03,5.98-5.03c3.01,0,5.13,1.64,5.67,4.39c0.13,0.65,0.2,1.29,0.2,1.94v0.27
	l-0.05,0.27c-2.15,11.6-6.49,21.41-12.9,29.16c-2.29,2.77-4.9,5.21-7.76,7.26C117.71,51.92,110.24,54.31,101.96,54.31z"/>
<path class="st0" d="M101.96,53.31c-3.01,0-4.88-1.9-4.88-4.95c0-3.1,1.87-5.03,4.88-5.03c12.1,0,20.92-5.98,26.98-18.27
	c2.28-4.71,3.98-10.07,5.05-15.91c0.47-2.67,2.29-4.21,5-4.21c2.53,0,4.24,1.31,4.69,3.59c0.12,0.59,0.18,1.17,0.18,1.74v0.18
	l-0.03,0.18c-2.12,11.43-6.38,21.08-12.69,28.7c-2.23,2.7-4.78,5.09-7.57,7.09C117.3,50.99,110.03,53.31,101.96,53.31z"/>
<path class="st0" d="M101.96,52.31c-2.47,0-3.88-1.44-3.88-3.95c0-2.56,1.42-4.03,3.88-4.03c12.52,0,21.63-6.16,27.87-18.83
	c2.32-4.8,4.05-10.24,5.14-16.17c0.38-2.19,1.81-3.39,4.01-3.39c2.75,0,3.51,1.74,3.71,2.78c0.11,0.53,0.17,1.04,0.17,1.55v0.09
	l-0.02,0.09c-2.08,11.26-6.28,20.76-12.47,28.25c-2.18,2.64-4.66,4.96-7.38,6.91C116.89,50.05,109.81,52.31,101.96,52.31z"/>
<path class="st0" d="M141.71,8.91c-0.26-1.32-1.16-1.97-2.73-1.97c-1.72,0-2.73,0.86-3.03,2.57c-1.11,6.06-2.86,11.54-5.22,16.43
	c-6.37,12.92-15.95,19.38-28.77,19.38c-1.92,0-2.88,1.01-2.88,3.03c0,1.96,0.96,2.95,2.88,2.95c7.67,0,14.48-2.17,20.44-6.51
	c2.68-1.92,5.07-4.16,7.19-6.74c6.1-7.37,10.2-16.63,12.26-27.79C141.86,9.81,141.81,9.36,141.71,8.91z"/>
<path class="st0" d="M186.38,131.9c-3.67,0-5.95-2.37-5.95-6.17c0-2.22,1.22-4.13,3.36-5.24l0.14-0.07
	c6.95-3.06,13.11-8.39,18.35-15.88c-0.41,0.03-0.82,0.04-1.22,0.04c-7.93,0-14.73-3.43-20.19-10.2c-5.01-6.17-7.56-13.25-7.56-21.05
	c0-7.5,1.91-14.4,5.67-20.5c4.54-7.53,10.7-11.35,18.3-11.35c8.21,0,15.03,4.02,20.29,11.94c4.46,6.74,6.71,14.26,6.71,22.33
	c0,6.52-1.5,13.53-4.46,20.81c-2.92,7.36-6.98,14.14-12.08,20.12c-5.56,6.51-11.86,11.43-18.73,14.63l-0.3,0.14l-2.01,0.44H186.38z
	 M197.28,53.31c-2.63,0-5.07,1.5-7.47,4.59c-3.1,3.99-4.67,9.18-4.67,15.42c0,4.76,1.56,9.25,4.63,13.34
	c3.24,4.23,6.94,6.29,11.3,6.29c3.05,0,6.13-1.33,9.18-3.95c1.47-4.45,2.21-8.91,2.21-13.26c0-5.22-1.41-10.23-4.19-14.9
	C205.23,55.78,201.64,53.31,197.28,53.31z"/>
<path class="st0" d="M186.38,130.9c-3.1,0-4.95-1.93-4.95-5.17c0-1.86,1-3.41,2.82-4.35l0.12-0.06c7.64-3.36,14.36-9.42,19.96-18.02
	c-1.11,0.18-2.2,0.27-3.26,0.27c-7.61,0-14.15-3.31-19.42-9.83c-4.87-5.99-7.34-12.86-7.34-20.42c0-7.31,1.86-14.04,5.52-19.98
	c4.34-7.21,10.22-10.87,17.45-10.87c7.85,0,14.4,3.87,19.46,11.49c4.34,6.58,6.55,13.9,6.55,21.78c0,6.39-1.48,13.27-4.39,20.44
	c-2.88,7.26-6.89,13.95-11.91,19.85c-5.47,6.4-11.65,11.23-18.39,14.37l-0.2,0.09l-1.8,0.39H186.38z M197.28,52.31
	c-2.96,0-5.66,1.63-8.26,4.98c-3.24,4.17-4.88,9.56-4.88,16.03c0,4.99,1.62,9.68,4.83,13.94c3.45,4.5,7.41,6.69,12.1,6.69
	c3.37,0,6.74-1.47,10.04-4.37c1.56-4.64,2.35-9.29,2.35-13.84c0-5.4-1.46-10.59-4.33-15.41C205.89,54.94,202.02,52.31,197.28,52.31z
	"/>
<path class="st0" d="M186.38,129.9c-2.51,0-3.95-1.52-3.95-4.17c0-1.04,0.4-2.48,2.28-3.46c8.12-3.57,15.16-10.03,20.97-19.22
	c0.26-0.4,0.51-0.82,0.77-1.24c-0.38,0.1-0.75,0.2-1.13,0.29c-1.48,0.32-2.86,0.48-4.24,0.48c-7.3,0-13.57-3.18-18.64-9.46
	c-4.72-5.81-7.11-12.47-7.11-19.79c0-7.13,1.81-13.67,5.37-19.45c4.16-6.9,9.74-10.4,16.6-10.4c7.49,0,13.76,3.72,18.63,11.05
	c4.23,6.41,6.38,13.55,6.38,21.23c0,6.26-1.45,13.01-4.32,20.06c-2.84,7.17-6.8,13.76-11.75,19.58
	c-5.37,6.29-11.44,11.03-18.05,14.11l-0.1,0.05l-1.58,0.35H186.38z M197.28,51.31c-3.24,0-6.29,1.81-9.05,5.37
	c-3.38,4.35-5.09,9.95-5.09,16.65c0,5.21,1.69,10.1,5.03,14.54c3.66,4.77,7.88,7.09,12.9,7.09c3.69,0,7.36-1.61,10.9-4.8
	c1.65-4.82,2.49-9.67,2.49-14.41c0-5.59-1.5-10.94-4.47-15.92C206.56,54.1,202.4,51.31,197.28,51.31z"/>
<path class="st0" d="M215.07,55.08c-4.69-7.06-10.63-10.6-17.79-10.6c-6.5,0-11.76,3.31-15.74,9.92
	c-3.48,5.65-5.22,11.97-5.22,18.93c0,7.12,2.3,13.51,6.89,19.16c4.9,6.06,10.85,9.09,17.86,9.09c1.32,0,2.65-0.15,4.02-0.46
	c1.2-0.28,2.38-0.64,3.54-1.08c-0.65,1.18-1.35,2.37-2.1,3.54c-5.95,9.41-13.08,15.93-21.35,19.57c-1.16,0.6-1.74,1.46-1.74,2.57
	c0,2.12,0.98,3.17,2.95,3.17l1.37-0.3c6.5-3.03,12.42-7.65,17.72-13.85c4.9-5.76,8.76-12.19,11.58-19.31
	c2.83-6.97,4.24-13.53,4.24-19.69C221.29,68.23,219.21,61.34,215.07,55.08z M212.73,90.82c-3.79,3.43-7.67,5.15-11.67,5.15
	c-5.3,0-9.87-2.5-13.7-7.49c-3.48-4.64-5.23-9.69-5.23-15.14c0-6.96,1.77-12.72,5.3-17.26c2.98-3.84,6.26-5.76,9.84-5.76
	c5.45,0,9.97,3,13.56,9.01c3.07,5.15,4.61,10.63,4.61,16.43c0,4.96-0.88,9.96-2.63,15.01C212.79,90.77,212.76,90.8,212.73,90.82z"/>
</svg>
